%TF.GenerationSoftware,Altium Limited,Altium Designer,23.1.1 (15)*%
G04 Layer_Physical_Order=1*
G04 Layer_Color=255*
%FSLAX45Y45*%
%MOMM*%
%TF.SameCoordinates,DA8359DC-2A2D-43C9-82BD-A03897F034EF*%
%TF.FilePolarity,Positive*%
%TF.FileFunction,Copper,L1,Top,Signal*%
%TF.Part,Single*%
G01*
G75*
%TA.AperFunction,SMDPad,CuDef*%
%ADD10R,2.00000X1.00000*%
%ADD11R,2.00000X1.80000*%
%TA.AperFunction,Conductor*%
%ADD12C,0.63500*%
%TA.AperFunction,ComponentPad*%
%ADD13R,1.05000X1.05000*%
%ADD14C,0.80000*%
%ADD15C,1.05000*%
%ADD16C,1.10000*%
%TA.AperFunction,ViaPad*%
%ADD17C,1.00000*%
D10*
X362001Y1676400D02*
D03*
Y1818899D02*
D03*
Y1533901D02*
D03*
X1161999D02*
D03*
Y1676400D02*
D03*
Y1816359D02*
D03*
D11*
X762000Y2081398D02*
D03*
Y1271402D02*
D03*
D12*
X1160780Y482600D02*
Y1533901D01*
X360680Y640791D02*
Y1533901D01*
X362001Y1676400D02*
X467360D01*
X538201Y1605559D01*
Y427853D02*
Y1605559D01*
Y427853D02*
X615533Y350520D01*
X749300D01*
X855980Y457200D01*
X985799D01*
X1160780Y1533901D02*
X1161999D01*
X1005840Y327660D02*
X1160780Y482600D01*
X1005840Y182880D02*
Y327660D01*
X1008380Y629488D02*
Y1663700D01*
X1161999Y1676400D01*
X1135802Y140122D02*
Y257200D01*
X1064489Y68809D02*
X1135802Y140122D01*
X347406Y68809D02*
X1064489D01*
X197409Y218806D02*
X347406Y68809D01*
X197409Y218806D02*
Y1756969D01*
X259339Y1818899D01*
X362001D01*
X360680Y1533901D02*
X362001D01*
X281229Y561340D02*
X360680Y640791D01*
X281229Y333451D02*
Y561340D01*
Y333451D02*
X462051Y152629D01*
X731230D01*
X835802Y257200D01*
X685800Y457200D02*
X914400Y685800D01*
Y1696979D01*
X1033780Y1816359D01*
X1161999D01*
D13*
X1135802Y257200D02*
D03*
D14*
X1300800Y637200D02*
D03*
X762000Y1866402D02*
D03*
D15*
X985799Y457200D02*
D03*
X835802Y257200D02*
D03*
X685800Y457200D02*
D03*
X535798Y257200D02*
D03*
X385801Y457200D02*
D03*
D16*
X762000Y1486398D02*
D03*
D17*
X1005840Y182880D02*
D03*
X1008380Y629488D02*
D03*
%TF.MD5,6c3a24ca0ca051882d250ec7ade1da29*%
M02*
