%TF.GenerationSoftware,Altium Limited,Altium Designer,23.1.1 (15)*%
G04 Layer_Color=65535*
%FSLAX45Y45*%
%MOMM*%
%TF.SameCoordinates,4E948076-F00C-46A4-8CE1-B66C86AC089E*%
%TF.FilePolarity,Positive*%
%TF.FileFunction,Legend,Top*%
%TF.Part,Single*%
G01*
G75*
%TA.AperFunction,NonConductor*%
%ADD21C,0.25000*%
%ADD22C,0.20000*%
%ADD23C,0.12700*%
%ADD24C,0.25400*%
%ADD25C,0.15240*%
D21*
X5127500Y2854400D02*
G03*
X5127500Y2854400I-12500J0D01*
G01*
X5089400Y3578300D02*
G03*
X5089400Y3578300I-12500J0D01*
G01*
X4747100Y2158800D02*
G03*
X4747100Y2158800I-12500J0D01*
G01*
D22*
X6188200Y617200D02*
G03*
X6188200Y617200I-10000J0D01*
G01*
X3191000Y5252700D02*
G03*
X3191000Y5252700I-10000J0D01*
G01*
X193800Y617200D02*
G03*
X193800Y617200I-10000J0D01*
G01*
X4462501Y2554402D02*
Y3084398D01*
Y2554402D02*
X5062499D01*
Y2941899D01*
X4462501Y3084398D02*
X4920000D01*
X4424401Y3278302D02*
Y3808298D01*
Y3278302D02*
X5024399D01*
Y3665799D01*
X4424401Y3808298D02*
X4881900D01*
X4517100Y1311300D02*
X5047102D01*
Y2111299D01*
X4659600D02*
X5047102D01*
X4517100Y1311300D02*
Y1968800D01*
D23*
X6303198Y207198D02*
X6803202D01*
X6303198Y707202D02*
X6803202D01*
X6303198Y378551D02*
Y535849D01*
X6803202Y378551D02*
Y535849D01*
X3305998Y4842698D02*
X3806002D01*
X3305998Y5342702D02*
X3806002D01*
X3305998Y5014051D02*
Y5171349D01*
X3806002Y5014051D02*
Y5171349D01*
X308798Y207198D02*
X808802D01*
X308798Y707202D02*
X808802D01*
X308798Y378551D02*
Y535849D01*
X808802Y378551D02*
Y535849D01*
D24*
X2338070Y419735D02*
X4116070D01*
X2338070Y3886835D02*
X4116070D01*
X2338070Y419735D02*
Y3886835D01*
X4116070Y419735D02*
Y3886835D01*
X5245141Y3162275D02*
Y3060708D01*
X5295925Y3009925D01*
X5346708Y3060708D01*
Y3162275D01*
X5397492D02*
Y3009925D01*
X5473667D01*
X5499059Y3035317D01*
Y3060708D01*
X5473667Y3086100D01*
X5397492D01*
X5473667D01*
X5499059Y3111492D01*
Y3136883D01*
X5473667Y3162275D01*
X5397492D01*
X6182360Y810260D02*
Y962611D01*
X6283927Y810260D01*
Y962611D01*
X6334711Y810260D02*
Y962611D01*
X6410886D01*
X6436278Y937219D01*
Y886435D01*
X6410886Y861043D01*
X6334711D01*
X6487061Y810260D02*
X6537845D01*
X6512453D01*
Y962611D01*
X6487061Y937219D01*
X4429760Y4061411D02*
Y3909060D01*
X4505935D01*
X4531327Y3934452D01*
Y3959843D01*
X4505935Y3985235D01*
X4429760D01*
X4505935D01*
X4531327Y4010627D01*
Y4036019D01*
X4505935Y4061411D01*
X4429760D01*
X4582111Y3909060D02*
Y4010627D01*
X4632894Y4061411D01*
X4683678Y4010627D01*
Y3909060D01*
Y3985235D01*
X4582111D01*
X4734461Y4061411D02*
X4836029D01*
X4785245D01*
Y3909060D01*
X2349500Y4127451D02*
X2451067D01*
X2400283D01*
Y3975100D01*
X2501851D02*
Y4127451D01*
X2578026D01*
X2603418Y4102059D01*
Y4051275D01*
X2578026Y4025883D01*
X2501851D01*
X2654201Y3975100D02*
Y4127451D01*
X2704985Y4076667D01*
X2755769Y4127451D01*
Y3975100D01*
X2908119Y4102059D02*
X2882728Y4127451D01*
X2831944D01*
X2806552Y4102059D01*
Y4000492D01*
X2831944Y3975100D01*
X2882728D01*
X2908119Y4000492D01*
X2680970Y711769D02*
X2782537D01*
X2731753D01*
Y559418D01*
X2833321D02*
X2884104D01*
X2858713D01*
Y660986D01*
X2833321D01*
X2960280Y559418D02*
Y660986D01*
X3036455D01*
X3061847Y635594D01*
Y559418D01*
X3112630Y660986D02*
Y584810D01*
X3138022Y559418D01*
X3214198D01*
Y534027D01*
X3188806Y508635D01*
X3163414D01*
X3214198Y559418D02*
Y660986D01*
X3264981Y559418D02*
Y711769D01*
X3341156D01*
X3366548Y686377D01*
Y635594D01*
X3341156Y610202D01*
X3264981D01*
X3417332Y711769D02*
X3468115D01*
X3442724D01*
Y559418D01*
X3417332D01*
X3468115D01*
X3645858Y686377D02*
X3620466Y711769D01*
X3569682D01*
X3544291Y686377D01*
Y584810D01*
X3569682Y559418D01*
X3620466D01*
X3645858Y584810D01*
X3772817Y711769D02*
X3722033D01*
X3696641Y686377D01*
Y584810D01*
X3722033Y559418D01*
X3772817D01*
X3798209Y584810D01*
Y686377D01*
X3772817Y711769D01*
X4518660Y2412951D02*
X4569443D01*
X4544052D01*
Y2260600D01*
X4518660D01*
X4569443D01*
X4645619D02*
Y2412951D01*
X4721794D01*
X4747186Y2387559D01*
Y2336775D01*
X4721794Y2311383D01*
X4645619D01*
X4696402D02*
X4747186Y2260600D01*
X4797970D02*
Y2412951D01*
X4874145D01*
X4899537Y2387559D01*
Y2336775D01*
X4874145Y2311383D01*
X4797970D01*
X4848753D02*
X4899537Y2260600D01*
X3185160Y5445760D02*
Y5598111D01*
X3286727Y5445760D01*
Y5598111D01*
X3337511Y5445760D02*
Y5598111D01*
X3413686D01*
X3439078Y5572719D01*
Y5521935D01*
X3413686Y5496543D01*
X3337511D01*
X3591429Y5445760D02*
X3489861D01*
X3591429Y5547327D01*
Y5572719D01*
X3566037Y5598111D01*
X3515253D01*
X3489861Y5572719D01*
X187960Y810260D02*
Y962611D01*
X289527Y810260D01*
Y962611D01*
X340311Y810260D02*
Y962611D01*
X416486D01*
X441878Y937219D01*
Y886435D01*
X416486Y861043D01*
X340311D01*
X492661Y937219D02*
X518053Y962611D01*
X568837D01*
X594229Y937219D01*
Y911827D01*
X568837Y886435D01*
X543445D01*
X568837D01*
X594229Y861043D01*
Y835652D01*
X568837Y810260D01*
X518053D01*
X492661Y835652D01*
D25*
X3051810Y3838550D02*
Y3775071D01*
X3064506Y3762375D01*
X3089898D01*
X3102593Y3775071D01*
Y3838550D01*
X3178769Y3825854D02*
X3166073Y3838550D01*
X3140681D01*
X3127985Y3825854D01*
Y3813158D01*
X3140681Y3800463D01*
X3166073D01*
X3178769Y3787767D01*
Y3775071D01*
X3166073Y3762375D01*
X3140681D01*
X3127985Y3775071D01*
X3204161Y3838550D02*
Y3762375D01*
X3242249D01*
X3254944Y3775071D01*
Y3787767D01*
X3242249Y3800463D01*
X3204161D01*
X3242249D01*
X3254944Y3813158D01*
Y3825854D01*
X3242249Y3838550D01*
X3204161D01*
X3280336Y3800463D02*
X3331120D01*
X3407295Y3825854D02*
X3394599Y3838550D01*
X3369207D01*
X3356511Y3825854D01*
Y3775071D01*
X3369207Y3762375D01*
X3394599D01*
X3407295Y3775071D01*
%TF.MD5,a8b2c563a6853817df6fef2f477548e7*%
M02*
