%TF.GenerationSoftware,Altium Limited,Altium Designer,23.1.1 (15)*%
G04 Layer_Physical_Order=1*
G04 Layer_Color=255*
%FSLAX45Y45*%
%MOMM*%
%TF.SameCoordinates,4E948076-F00C-46A4-8CE1-B66C86AC089E*%
%TF.FilePolarity,Positive*%
%TF.FileFunction,Copper,L1,Top,Signal*%
%TF.Part,Single*%
G01*
G75*
%TA.AperFunction,SMDPad,CuDef*%
%ADD10R,1.50000X1.00000*%
%TA.AperFunction,Conductor*%
%ADD11C,0.63500*%
%ADD12C,0.38100*%
%TA.AperFunction,ViaPad*%
%ADD13C,2.54000*%
%TA.AperFunction,ComponentPad*%
%ADD14C,1.20000*%
%ADD15R,1.20000X1.20000*%
%ADD16C,1.10000*%
%ADD17C,1.42240*%
%ADD18R,1.37160X1.37160*%
%ADD19R,1.20000X1.20000*%
%TA.AperFunction,ViaPad*%
%ADD20C,1.00000*%
D10*
X6308202Y617200D02*
D03*
X6798198D02*
D03*
X6308202Y297200D02*
D03*
X6798198D02*
D03*
X3311002Y5252700D02*
D03*
X3800998D02*
D03*
X3311002Y4932700D02*
D03*
X3800998D02*
D03*
X313802Y617200D02*
D03*
X803798D02*
D03*
X313802Y297200D02*
D03*
X803798D02*
D03*
D11*
X2997200Y5321300D02*
X3065800Y5252700D01*
X3311002D01*
X6007100Y893301D02*
Y1003300D01*
X6283202Y617200D02*
X6308202D01*
X6007100Y893301D02*
X6283202Y617200D01*
X190500Y740501D02*
Y1092200D01*
X177800Y1104900D02*
X190500Y1092200D01*
X270552Y635450D02*
X288802Y617200D01*
X190500Y740501D02*
X270552Y660450D01*
X288802Y617200D02*
X313802D01*
X270552Y635450D02*
Y660450D01*
X4542841Y1911299D02*
X4737100D01*
X3990340Y2463800D02*
X4542841Y1911299D01*
X4712330Y3700369D02*
X4824400Y3588299D01*
X4210909Y3700369D02*
X4712330D01*
X3990340Y3479800D02*
X4210909Y3700369D01*
X3990340Y2717800D02*
X4715901D01*
X4862500Y2864399D01*
X4824400Y3588299D02*
X6598920Y1813778D01*
Y416580D02*
Y1813778D01*
Y416580D02*
X6718300Y297200D01*
X6798198D01*
X6797040Y617200D02*
X6798198D01*
X4564380Y5356860D02*
X6797040Y3124200D01*
X3672840Y5356860D02*
X4564380D01*
X3436620Y5120640D02*
X3672840Y5356860D01*
X3436620Y4963180D02*
Y5120640D01*
X3406140Y4932700D02*
X3436620Y4963180D01*
X3311002Y4932700D02*
X3406140D01*
X3705840Y5252700D02*
X3800998D01*
X3601720Y5148580D02*
X3705840Y5252700D01*
X3601720Y4823460D02*
Y5148580D01*
X497840Y1719580D02*
X3601720Y4823460D01*
X497840Y353060D02*
Y1719580D01*
X441980Y297200D02*
X497840Y353060D01*
X313802Y297200D02*
X441980D01*
X3865880Y2085340D02*
X3990340Y2209800D01*
X3865880Y1082040D02*
Y2085340D01*
Y1082040D02*
X4650720Y297200D01*
X6308202D01*
X3990340Y3479800D02*
Y4823460D01*
X3881100Y4932700D02*
X3990340Y4823460D01*
X3800998Y4932700D02*
X3881100D01*
X3804920Y3294380D02*
X3990340Y3479800D01*
X3804920Y2189480D02*
Y3294380D01*
X1912640Y297200D02*
X3804920Y2189480D01*
X803798Y297200D02*
X1912640D01*
X6797040Y617200D02*
Y3124200D01*
D12*
X4862500Y1836699D02*
Y2864399D01*
X4737100Y1711300D02*
X4862500Y1836699D01*
D13*
X1282700Y1117600D02*
D03*
X6070600Y1485900D02*
D03*
X6705600Y5473700D02*
D03*
X482600Y5435600D02*
D03*
D14*
X4662500Y2864399D02*
D03*
X4624400Y3588299D02*
D03*
X4737100Y1511300D02*
D03*
Y1711300D02*
D03*
D15*
X4862500Y2864399D02*
D03*
X4824400Y3588299D02*
D03*
D16*
X5012502Y3034401D02*
D03*
X4974402Y3758301D02*
D03*
X4567098Y2061301D02*
D03*
D17*
X3990340Y3479800D02*
D03*
Y2971800D02*
D03*
Y2717800D02*
D03*
Y2463800D02*
D03*
Y2209800D02*
D03*
Y1955800D02*
D03*
Y1701800D02*
D03*
Y1447800D02*
D03*
Y1193800D02*
D03*
X2463800Y3479800D02*
D03*
Y3225800D02*
D03*
Y2971800D02*
D03*
Y2717800D02*
D03*
Y2463800D02*
D03*
Y2209800D02*
D03*
Y1955800D02*
D03*
Y1701800D02*
D03*
Y1447800D02*
D03*
D18*
X3990340Y3225800D02*
D03*
X2463800Y1193800D02*
D03*
D19*
X4737100Y1911299D02*
D03*
D20*
X2997200Y5321300D02*
D03*
X6007100Y1003300D02*
D03*
X177800Y1104900D02*
D03*
%TF.MD5,b78df5b1916a1c9d576d2458b5eb2768*%
M02*
