%TF.GenerationSoftware,Altium Limited,Altium Designer,23.1.1 (15)*%
G04 Layer_Color=8388736*
%FSLAX45Y45*%
%MOMM*%
%TF.SameCoordinates,65C13D17-EFD2-49A1-9DDF-215AC00BF633*%
%TF.FilePolarity,Negative*%
%TF.FileFunction,Soldermask,Top*%
%TF.Part,Single*%
G01*
G75*
%TA.AperFunction,ComponentPad*%
%ADD12C,1.10000*%
%ADD13C,1.20000*%
%ADD14R,1.20000X1.20000*%
%TA.AperFunction,SMDPad,CuDef*%
%ADD20R,1.20320X1.70320*%
%TA.AperFunction,ViaPad*%
%ADD21C,1.20320*%
D12*
X2864602Y1105799D02*
D03*
Y165999D02*
D03*
D13*
X2314600Y1275801D02*
D03*
X2514600D02*
D03*
X2314600Y336001D02*
D03*
X2514600D02*
D03*
D14*
X2714600Y1275801D02*
D03*
Y336001D02*
D03*
D20*
X1861800Y1095898D02*
D03*
Y605902D02*
D03*
X1541800Y1095898D02*
D03*
Y605902D02*
D03*
X464800Y1095898D02*
D03*
Y605902D02*
D03*
X144800Y1095898D02*
D03*
Y605902D02*
D03*
X1163300Y1095898D02*
D03*
Y605897D02*
D03*
X843300Y1095898D02*
D03*
Y605897D02*
D03*
D21*
X647700Y723900D02*
D03*
X1541800Y924601D02*
D03*
%TF.MD5,842a3e632b488091a448671e1c4b536d*%
M02*
