%TF.GenerationSoftware,Altium Limited,Altium Designer,23.1.1 (15)*%
G04 Layer_Color=32896*
%FSLAX45Y45*%
%MOMM*%
%TF.SameCoordinates,65C13D17-EFD2-49A1-9DDF-215AC00BF633*%
%TF.FilePolarity,Positive*%
%TF.FileFunction,Legend,Bot*%
%TF.Part,Single*%
G01*
G75*
%TA.AperFunction,NonConductor*%
%ADD16C,0.20000*%
%ADD18C,0.25400*%
%ADD19C,0.25000*%
D16*
X2114601Y1055802D02*
Y1585803D01*
X2914599D01*
Y1198301D02*
Y1585803D01*
X2114601Y1055802D02*
X2772100D01*
X2114601Y116002D02*
Y645998D01*
X2914599D01*
Y258501D02*
Y645998D01*
X2114601Y116002D02*
X2772100D01*
D18*
X2044614Y1371625D02*
Y1523975D01*
X1943046Y1371625D01*
Y1523975D01*
X1892263Y1371625D02*
Y1523975D01*
X1816088D01*
X1790696Y1498583D01*
Y1447800D01*
X1816088Y1422408D01*
X1892263D01*
X1739912Y1523975D02*
X1689129D01*
X1714520D01*
Y1371625D01*
X1739912D01*
X1689129D01*
X1612953D02*
Y1523975D01*
X1511386Y1371625D01*
Y1523975D01*
X2920885Y736625D02*
Y888975D01*
X2819318Y736625D01*
Y888975D01*
X2768534Y736625D02*
Y888975D01*
X2692359D01*
X2666967Y863583D01*
Y812800D01*
X2692359Y787408D01*
X2768534D01*
X2540008Y888975D02*
X2590792D01*
X2616183Y863583D01*
Y762017D01*
X2590792Y736625D01*
X2540008D01*
X2514616Y762017D01*
Y863583D01*
X2540008Y888975D01*
X2463833D02*
Y762017D01*
X2438441Y736625D01*
X2387657D01*
X2362266Y762017D01*
Y888975D01*
X2311482D02*
X2209915D01*
X2260699D01*
Y736625D01*
D19*
X2974600Y1273300D02*
G03*
X2974600Y1273300I-12500J0D01*
G01*
Y333500D02*
G03*
X2974600Y333500I-12500J0D01*
G01*
%TF.MD5,3c8794986069ae8cedf16ae8cff382d7*%
M02*
