%TF.GenerationSoftware,Altium Limited,Altium Designer,23.1.1 (15)*%
G04 Layer_Color=8421504*
%FSLAX45Y45*%
%MOMM*%
%TF.SameCoordinates,C52F0387-6C9F-4DBB-ABB6-C867BCF9EA55*%
%TF.FilePolarity,Positive*%
%TF.FileFunction,Paste,Top*%
%TF.Part,Single*%
G01*
G75*
%TA.AperFunction,SMDPad,CuDef*%
%ADD10R,1.71213X1.05814*%
%TA.AperFunction,ConnectorPad*%
%ADD11R,1.90000X1.50000*%
%ADD12R,1.75822X1.40375*%
%ADD13R,0.90000X0.95000*%
%ADD14R,1.71213X1.05814*%
D10*
X-4813300Y517703D02*
D03*
X-4356100D02*
D03*
X-3911600D02*
D03*
X-3505200D02*
D03*
X-3073400Y815802D02*
D03*
X-4813300Y803097D02*
D03*
X-4356100D02*
D03*
X-3911600D02*
D03*
X-3505200D02*
D03*
X-3073400Y530403D02*
D03*
X-6845300Y4079697D02*
D03*
Y3794303D02*
D03*
X-1943100Y764997D02*
D03*
Y479603D02*
D03*
X-2679700Y1488897D02*
D03*
Y1203498D02*
D03*
D11*
X-2578100Y4864100D02*
D03*
Y5164099D02*
D03*
D12*
X-1384300Y599039D02*
D03*
Y874161D02*
D03*
X-660400Y836061D02*
D03*
Y560939D02*
D03*
D13*
X-1111001Y624302D02*
D03*
X-1016000Y874298D02*
D03*
X-920999Y624302D02*
D03*
D14*
X-266700Y1447800D02*
D03*
Y1162406D02*
D03*
%TF.MD5,6db8c58120207ee3a5d64339a81fb00c*%
M02*
