%TF.GenerationSoftware,Altium Limited,Altium Designer,23.1.1 (15)*%
G04 Layer_Color=16711935*
%FSLAX45Y45*%
%MOMM*%
%TF.SameCoordinates,C52F0387-6C9F-4DBB-ABB6-C867BCF9EA55*%
%TF.FilePolarity,Negative*%
%TF.FileFunction,Soldermask,Bot*%
%TF.Part,Single*%
G01*
G75*
%TA.AperFunction,ComponentPad*%
%ADD20C,1.20000*%
%ADD21R,1.20000X1.20000*%
%ADD22C,1.10000*%
%ADD23R,1.20000X1.20000*%
%ADD38R,1.20240X1.20240*%
%ADD39C,1.20240*%
%ADD40C,1.25240*%
%TA.AperFunction,ViaPad*%
%ADD41C,2.74320*%
%TA.AperFunction,ComponentPad*%
%ADD42C,1.62560*%
%ADD43R,1.57480X1.57480*%
%ADD44C,0.95240*%
%TA.AperFunction,ViaPad*%
%ADD45C,1.20320*%
D20*
X-1873799Y4611700D02*
D03*
X-3251200Y4864100D02*
D03*
X-6667500Y4702200D02*
D03*
X-6713499Y2343699D02*
D03*
X-6513500D02*
D03*
X-6313500D02*
D03*
X-6762699Y1638300D02*
D03*
X-6562700D02*
D03*
X-6362700D02*
D03*
X-974700Y1371600D02*
D03*
X-2038899Y1220800D02*
D03*
X-8973099Y382600D02*
D03*
X-6661099Y673100D02*
D03*
X-6461100D02*
D03*
X-7899400Y469900D02*
D03*
X-6513500Y3219999D02*
D03*
D21*
X-1873799Y4811700D02*
D03*
X-3251200Y5064100D02*
D03*
X-6667500Y4902200D02*
D03*
X-2038899Y1420800D02*
D03*
X-8973099Y582600D02*
D03*
X-7899400Y669900D02*
D03*
D22*
X-2043801Y4961702D02*
D03*
X-3421202Y5214102D02*
D03*
X-6837502Y5052202D02*
D03*
X-5963498Y2513701D02*
D03*
X-6012698Y1808302D02*
D03*
X-624698Y1541602D02*
D03*
X-2208901Y1570802D02*
D03*
X-9143101Y732602D02*
D03*
X-6111098Y843102D02*
D03*
X-8069402Y819902D02*
D03*
X-6163498Y3390001D02*
D03*
D23*
X-6113501Y2343699D02*
D03*
X-6162700Y1638300D02*
D03*
X-774700Y1371600D02*
D03*
X-6261100Y673100D02*
D03*
X-6313500Y3219999D02*
D03*
D38*
X-4102801Y1171600D02*
D03*
D39*
X-3952799Y1371600D02*
D03*
X-3652799D02*
D03*
X-3352800D02*
D03*
D40*
X-3802802Y1171600D02*
D03*
X-3502797D02*
D03*
D41*
X-8509000Y1346200D02*
D03*
X-1295400Y4432300D02*
D03*
X-203200Y635000D02*
D03*
X-9423400Y215900D02*
D03*
X-6019800Y4533900D02*
D03*
D42*
X-3975100Y4889500D02*
D03*
Y4381500D02*
D03*
Y4127500D02*
D03*
Y3873500D02*
D03*
Y3619500D02*
D03*
Y3365500D02*
D03*
Y3111500D02*
D03*
Y2857500D02*
D03*
Y2603500D02*
D03*
X-5501640Y4889500D02*
D03*
Y4635500D02*
D03*
Y4381500D02*
D03*
Y4127500D02*
D03*
Y3873500D02*
D03*
Y3619500D02*
D03*
Y3365500D02*
D03*
Y3111500D02*
D03*
Y2857500D02*
D03*
X-2527300Y3086100D02*
D03*
Y3340100D02*
D03*
Y3594100D02*
D03*
Y3848100D02*
D03*
Y2832100D02*
D03*
Y2578100D02*
D03*
Y2324100D02*
D03*
Y2070100D02*
D03*
X-698500Y3086100D02*
D03*
Y3340100D02*
D03*
Y3594100D02*
D03*
Y3848100D02*
D03*
Y2832100D02*
D03*
Y2578100D02*
D03*
Y2324100D02*
D03*
Y2070100D02*
D03*
D43*
X-3975100Y4635500D02*
D03*
X-5501640Y2603500D02*
D03*
D44*
X-4267799Y1551600D02*
D03*
D45*
X-2212340Y469900D02*
D03*
X-4417060Y2082800D02*
D03*
X-4114800Y2202180D02*
D03*
X-3695700Y2578100D02*
D03*
X-3903980Y660400D02*
D03*
X-911860Y874298D02*
D03*
X-6812280Y3937000D02*
D03*
X-782320Y1074420D02*
D03*
%TF.MD5,416879d72005ef0365a6f7d23fa2e61f*%
M02*
