%TF.GenerationSoftware,Altium Limited,Altium Designer,23.1.1 (15)*%
G04 Layer_Physical_Order=1*
G04 Layer_Color=255*
%FSLAX45Y45*%
%MOMM*%
%TF.SameCoordinates,65C13D17-EFD2-49A1-9DDF-215AC00BF633*%
%TF.FilePolarity,Positive*%
%TF.FileFunction,Copper,L1,Top,Signal*%
%TF.Part,Single*%
G01*
G75*
%TA.AperFunction,SMDPad,CuDef*%
%ADD10R,1.00000X1.50000*%
%TA.AperFunction,Conductor*%
%ADD11C,0.63500*%
%TA.AperFunction,ComponentPad*%
%ADD12C,1.10000*%
%ADD13C,1.20000*%
%ADD14R,1.20000X1.20000*%
%TA.AperFunction,ViaPad*%
%ADD15C,1.00000*%
D10*
X1861800Y1095898D02*
D03*
Y605902D02*
D03*
X1541800Y1095898D02*
D03*
Y605902D02*
D03*
X464800Y1095898D02*
D03*
Y605902D02*
D03*
X144800Y1095898D02*
D03*
Y605902D02*
D03*
X1163300Y1095898D02*
D03*
Y605897D02*
D03*
X843300Y1095898D02*
D03*
Y605897D02*
D03*
D11*
X464800Y630902D02*
X550814Y716916D01*
X640716D02*
X647700Y723900D01*
X464800Y605902D02*
Y630902D01*
X550814Y716916D02*
X640716D01*
X809831Y572427D02*
X914898Y467360D01*
X809831Y572427D02*
X843300Y605897D01*
X677718Y440314D02*
X809831Y572427D01*
X310388Y440314D02*
X677718D01*
X144800Y605902D02*
X310388Y440314D01*
X1421242Y605902D02*
X1541800D01*
X1282700Y467360D02*
X1421242Y605902D01*
X914898Y467360D02*
X1282700D01*
X1541800Y924601D02*
Y1095898D01*
X2041703Y1275801D02*
X2314600D01*
X1861800Y1095898D02*
X2041703Y1275801D01*
X1163300Y1095898D02*
X1291681Y1224280D01*
X1733418D01*
X1861800Y1095898D01*
X464800D02*
X675691Y1306789D01*
X952409D01*
X1163300Y1095898D01*
X1861800Y605902D02*
Y718820D01*
X1846560Y734060D02*
X1861800Y718820D01*
X1336040Y734060D02*
X1846560D01*
X1102360Y967740D02*
X1336040Y734060D01*
X871240Y967740D02*
X1102360D01*
X843300Y995680D02*
X871240Y967740D01*
X843300Y995680D02*
Y1095898D01*
X1163300Y605897D02*
Y642640D01*
X955040Y850900D02*
X1163300Y642640D01*
X248940Y850900D02*
X955040D01*
X144800Y955040D02*
X248940Y850900D01*
X144800Y955040D02*
Y1095898D01*
X1541800Y386080D02*
Y605902D01*
Y386080D02*
X1778020Y149860D01*
X2528458D01*
X2714600Y336001D01*
Y1275801D01*
X2314600Y336001D02*
Y1275801D01*
D12*
X2864602Y1105799D02*
D03*
Y165999D02*
D03*
D13*
X2314600Y1275801D02*
D03*
X2514600D02*
D03*
X2314600Y336001D02*
D03*
X2514600D02*
D03*
D14*
X2714600Y1275801D02*
D03*
Y336001D02*
D03*
D15*
X647700Y723900D02*
D03*
X1541800Y924601D02*
D03*
%TF.MD5,4087fc2f5f093e44e0303a785c46b37f*%
M02*
