%TF.GenerationSoftware,Altium Limited,Altium Designer,23.1.1 (15)*%
G04 Layer_Color=65535*
%FSLAX45Y45*%
%MOMM*%
%TF.SameCoordinates,C52F0387-6C9F-4DBB-ABB6-C867BCF9EA55*%
%TF.FilePolarity,Positive*%
%TF.FileFunction,Legend,Top*%
%TF.Part,Single*%
G01*
G75*
%TA.AperFunction,NonConductor*%
%ADD28C,0.25000*%
%ADD29C,0.20000*%
%ADD30C,0.25400*%
%ADD31C,0.12700*%
%ADD32C,0.15240*%
D28*
X-1851300Y5064200D02*
G03*
X-1851300Y5064200I-12500J0D01*
G01*
X-3228700Y5316600D02*
G03*
X-3228700Y5316600I-12500J0D01*
G01*
X-6645000Y5154700D02*
G03*
X-6645000Y5154700I-12500J0D01*
G01*
X-5841000Y2343700D02*
G03*
X-5841000Y2343700I-12500J0D01*
G01*
X-5890200Y1638301D02*
G03*
X-5890200Y1638301I-12500J0D01*
G01*
X-509700Y1361600D02*
G03*
X-509700Y1361600I-12500J0D01*
G01*
X-2016400Y1673300D02*
G03*
X-2016400Y1673300I-12500J0D01*
G01*
X-8950600Y835100D02*
G03*
X-8950600Y835100I-12500J0D01*
G01*
X-6001100Y675601D02*
G03*
X-6001100Y675601I-12500J0D01*
G01*
X-7876900Y922399D02*
G03*
X-7876900Y922399I-12500J0D01*
G01*
X-6048500Y3210000D02*
G03*
X-6048500Y3210000I-12500J0D01*
G01*
D29*
X-2093798Y4411701D02*
X-1563797D01*
Y5011699D01*
X-1951299D02*
X-1563797D01*
X-2093798Y4411701D02*
Y4869200D01*
X-2663099Y4979101D02*
Y5049098D01*
X-2493101Y4979101D02*
Y5049098D01*
X-3471200Y4664100D02*
X-2941198D01*
Y5264099D01*
X-3328700D02*
X-2941198D01*
X-3471200Y4664100D02*
Y5121600D01*
X-6887500Y4502201D02*
X-6357498D01*
Y5102200D01*
X-6745000D02*
X-6357498D01*
X-6887500Y4502201D02*
Y4959701D01*
X-6930908Y3877208D02*
Y3996792D01*
X-6759692Y3877208D02*
Y3996792D01*
X-6913499Y2033702D02*
Y2563698D01*
Y2033702D02*
X-5913501D01*
Y2421199D01*
X-6913499Y2563698D02*
X-6056000D01*
X-6962699Y1328303D02*
Y1858300D01*
Y1328303D02*
X-5962701D01*
Y1715800D01*
X-6962699Y1858300D02*
X-6105200D01*
X-2028708Y562508D02*
Y682092D01*
X-1857492Y562508D02*
Y682092D01*
X-1296391Y699226D02*
Y773974D01*
X-1472209Y699226D02*
Y773974D01*
X-885998Y711799D02*
Y874298D01*
X-1146002Y711799D02*
Y874298D01*
X-1100999D01*
X-931001D02*
X-885998D01*
X-748309Y661126D02*
Y735874D01*
X-572491Y661126D02*
Y735874D01*
X-1174699Y1061598D02*
Y1591600D01*
Y1061598D02*
X-574700D01*
Y1449100D01*
X-1174699Y1591600D02*
X-717199D01*
X-2258898Y1020801D02*
X-1728902D01*
Y1620799D01*
X-2116399D02*
X-1728902D01*
X-2258898Y1020801D02*
Y1478300D01*
X-9193098Y182601D02*
X-8663102D01*
Y782599D01*
X-9050599D02*
X-8663102D01*
X-9193098Y182601D02*
Y640100D01*
X-352308Y1245311D02*
Y1364894D01*
X-181092Y1245311D02*
Y1364894D01*
X-4441708Y600608D02*
Y720192D01*
X-4270492Y600608D02*
Y720192D01*
X-3997208Y600608D02*
Y720192D01*
X-3825992Y600608D02*
Y720192D01*
X-4898908Y600608D02*
Y720192D01*
X-4727692Y600608D02*
Y720192D01*
X-2987792Y613308D02*
Y732897D01*
X-3159008Y613308D02*
Y732897D01*
X-3590808Y600608D02*
Y720192D01*
X-3419592Y600608D02*
Y720192D01*
X-2765308Y1286403D02*
Y1405992D01*
X-2594092Y1286403D02*
Y1405992D01*
X-6861099Y363103D02*
Y893100D01*
Y363103D02*
X-6061100D01*
Y750600D01*
X-6861099Y893100D02*
X-6203599D01*
X-8119400Y269900D02*
X-7589398D01*
Y869899D01*
X-7976900D02*
X-7589398D01*
X-8119400Y269900D02*
Y727400D01*
X-6713499Y2910002D02*
Y3439998D01*
Y2910002D02*
X-6113501D01*
Y3297499D01*
X-6713499Y3439998D02*
X-6256000D01*
D30*
X-5627370Y1829435D02*
X-3849370D01*
X-5627370Y5296535D02*
X-3849370D01*
X-5627370Y1829435D02*
Y5296535D01*
X-3849370Y1829435D02*
Y5296535D01*
X-2667000Y1943100D02*
Y3975100D01*
Y1943100D02*
X-558800D01*
X-1485900Y3975100D02*
X-558800D01*
X-2667000D02*
X-1739900D01*
X-558800Y1943100D02*
Y3975100D01*
X-1739900Y3848100D02*
Y3975100D01*
Y3848100D02*
X-1485900D01*
Y3975100D01*
X-2451038Y190525D02*
Y342875D01*
X-2527214Y266700D01*
X-2425646D01*
X-2374863Y190525D02*
Y215917D01*
X-2349471D01*
Y190525D01*
X-2374863D01*
X-2247904Y342875D02*
X-2146337D01*
Y317483D01*
X-2247904Y215917D01*
Y190525D01*
X-2095553Y342875D02*
Y190525D01*
Y241308D01*
X-1993986Y342875D01*
X-2070161Y266700D01*
X-1993986Y190525D01*
X-2832038Y1663725D02*
Y1816075D01*
X-2908214Y1739900D01*
X-2806646D01*
X-2755863Y1663725D02*
Y1689117D01*
X-2730471D01*
Y1663725D01*
X-2755863D01*
X-2628904Y1816075D02*
X-2527337D01*
Y1790683D01*
X-2628904Y1689117D01*
Y1663725D01*
X-2476553Y1816075D02*
Y1663725D01*
Y1714508D01*
X-2374986Y1816075D01*
X-2451161Y1739900D01*
X-2374986Y1663725D01*
X-507938Y889025D02*
Y1041375D01*
X-584114Y965200D01*
X-482546D01*
X-431763Y889025D02*
Y914417D01*
X-406371D01*
Y889025D01*
X-431763D01*
X-304804Y1041375D02*
X-203237D01*
Y1015983D01*
X-304804Y914417D01*
Y889025D01*
X-152453Y1041375D02*
Y889025D01*
Y939808D01*
X-50886Y1041375D01*
X-127061Y965200D01*
X-50886Y889025D01*
X-5283138Y190525D02*
Y342875D01*
X-5359314Y266700D01*
X-5257746D01*
X-5206963Y190525D02*
Y215917D01*
X-5181571D01*
Y190525D01*
X-5206963D01*
X-5080004Y342875D02*
X-4978437D01*
Y317483D01*
X-5080004Y215917D01*
Y190525D01*
X-4927653Y342875D02*
Y190525D01*
Y241308D01*
X-4826086Y342875D01*
X-4902261Y266700D01*
X-4826086Y190525D01*
X-4597338D02*
Y342875D01*
X-4673514Y266700D01*
X-4571946D01*
X-4521163Y190525D02*
Y215917D01*
X-4495771D01*
Y190525D01*
X-4521163D01*
X-4394204Y342875D02*
X-4292637D01*
Y317483D01*
X-4394204Y215917D01*
Y190525D01*
X-4241853Y342875D02*
Y190525D01*
Y241308D01*
X-4140286Y342875D01*
X-4216461Y266700D01*
X-4140286Y190525D01*
X-3924238Y228625D02*
Y380975D01*
X-4000414Y304800D01*
X-3898846D01*
X-3848063Y228625D02*
Y254017D01*
X-3822671D01*
Y228625D01*
X-3848063D01*
X-3721104Y380975D02*
X-3619537D01*
Y355583D01*
X-3721104Y254017D01*
Y228625D01*
X-3568753Y380975D02*
Y228625D01*
Y279408D01*
X-3467186Y380975D01*
X-3543361Y304800D01*
X-3467186Y228625D01*
X-3251138Y165125D02*
Y317475D01*
X-3327314Y241300D01*
X-3225746D01*
X-3174963Y165125D02*
Y190517D01*
X-3149571D01*
Y165125D01*
X-3174963D01*
X-3048004Y317475D02*
X-2946437D01*
Y292083D01*
X-3048004Y190517D01*
Y165125D01*
X-2895653Y317475D02*
Y165125D01*
Y215908D01*
X-2794086Y317475D01*
X-2870261Y241300D01*
X-2794086Y165125D01*
X-2755838Y762025D02*
Y914375D01*
X-2832014Y838200D01*
X-2730446D01*
X-2679663Y762025D02*
Y787417D01*
X-2654271D01*
Y762025D01*
X-2679663D01*
X-2552704Y914375D02*
X-2451137D01*
Y888983D01*
X-2552704Y787417D01*
Y762025D01*
X-2400353Y914375D02*
Y762025D01*
Y812808D01*
X-2298786Y914375D01*
X-2374961Y838200D01*
X-2298786Y762025D01*
X-6540438Y3898925D02*
Y4051275D01*
X-6616614Y3975100D01*
X-6515046D01*
X-6464263Y3898925D02*
Y3924317D01*
X-6438871D01*
Y3898925D01*
X-6464263D01*
X-6337304Y4051275D02*
X-6235737D01*
Y4025883D01*
X-6337304Y3924317D01*
Y3898925D01*
X-6184953Y4051275D02*
Y3898925D01*
Y3949708D01*
X-6083386Y4051275D01*
X-6159561Y3975100D01*
X-6083386Y3898925D01*
X-3441634Y4571975D02*
Y4419625D01*
X-3365459D01*
X-3340067Y4445017D01*
Y4470408D01*
X-3365459Y4495800D01*
X-3441634D01*
X-3365459D01*
X-3340067Y4521192D01*
Y4546583D01*
X-3365459Y4571975D01*
X-3441634D01*
X-3289283Y4419625D02*
Y4521192D01*
X-3238500Y4571975D01*
X-3187716Y4521192D01*
Y4419625D01*
Y4495800D01*
X-3289283D01*
X-3136933Y4571975D02*
X-3035366D01*
X-3086149D01*
Y4419625D01*
X-7023059Y2844775D02*
Y2692425D01*
X-6946883D01*
X-6921492Y2717817D01*
Y2819383D01*
X-6946883Y2844775D01*
X-7023059D01*
X-6769141Y2819383D02*
X-6794533Y2844775D01*
X-6845316D01*
X-6870708Y2819383D01*
Y2793992D01*
X-6845316Y2768600D01*
X-6794533D01*
X-6769141Y2743208D01*
Y2717817D01*
X-6794533Y2692425D01*
X-6845316D01*
X-6870708Y2717817D01*
X-8051738Y1181075D02*
X-8000955D01*
X-8026346D01*
Y1028725D01*
X-8051738D01*
X-8000955D01*
X-7924779D02*
Y1181075D01*
X-7848604D01*
X-7823212Y1155683D01*
Y1104900D01*
X-7848604Y1079508D01*
X-7924779D01*
X-7873996D02*
X-7823212Y1028725D01*
X-7670861Y1181075D02*
X-7772429D01*
Y1028725D01*
X-7670861D01*
X-7772429Y1104900D02*
X-7721645D01*
X-5003792Y1676375D02*
X-5054575D01*
X-5029183D01*
Y1549417D01*
X-5054575Y1524025D01*
X-5079967D01*
X-5105359Y1549417D01*
X-4851441Y1650983D02*
X-4876833Y1676375D01*
X-4927616D01*
X-4953008Y1650983D01*
Y1625592D01*
X-4927616Y1600200D01*
X-4876833D01*
X-4851441Y1574808D01*
Y1549417D01*
X-4876833Y1524025D01*
X-4927616D01*
X-4953008Y1549417D01*
X-9105859Y1155675D02*
Y1003325D01*
X-9004292D01*
X-8953508D02*
Y1155675D01*
X-8877333D01*
X-8851941Y1130283D01*
Y1079500D01*
X-8877333Y1054108D01*
X-8953508D01*
X-6527759Y127025D02*
Y279375D01*
X-6426192Y127025D01*
Y279375D01*
X-6375408Y127025D02*
Y279375D01*
X-6299233D01*
X-6273841Y253983D01*
Y203200D01*
X-6299233Y177808D01*
X-6375408D01*
X-6222942Y4889525D02*
Y5041875D01*
X-6146767D01*
X-6121375Y5016483D01*
Y4965700D01*
X-6146767Y4940308D01*
X-6222942D01*
X-6070592Y4889525D02*
Y5041875D01*
X-5994416D01*
X-5969024Y5016483D01*
Y4965700D01*
X-5994416Y4940308D01*
X-6070592D01*
X-6019808D02*
X-5969024Y4889525D01*
X-5918241Y5041875D02*
X-5867457D01*
X-5892849D01*
Y4889525D01*
X-5918241D01*
X-5867457D01*
X-647614Y1676425D02*
Y1828775D01*
X-571438D01*
X-546046Y1803383D01*
Y1752600D01*
X-571438Y1727208D01*
X-647614D01*
X-596830D02*
X-546046Y1676425D01*
X-495263D02*
Y1777992D01*
X-444479Y1828775D01*
X-393696Y1777992D01*
Y1676425D01*
Y1752600D01*
X-495263D01*
X-342912Y1828775D02*
X-292129D01*
X-317520D01*
Y1676425D01*
X-342912D01*
X-292129D01*
X-215953Y1828775D02*
Y1676425D01*
X-114386D01*
X-2184342Y5283183D02*
X-2209734Y5308575D01*
X-2260518D01*
X-2285910Y5283183D01*
Y5257792D01*
X-2260518Y5232400D01*
X-2209734D01*
X-2184342Y5207008D01*
Y5181617D01*
X-2209734Y5156225D01*
X-2260518D01*
X-2285910Y5181617D01*
X-2133559Y5156225D02*
Y5308575D01*
X-2057383D01*
X-2031992Y5283183D01*
Y5232400D01*
X-2057383Y5207008D01*
X-2133559D01*
X-1981208Y5308575D02*
Y5156225D01*
Y5207008D01*
X-1879641Y5308575D01*
X-1955816Y5232400D01*
X-1879641Y5156225D01*
X-1828857D02*
Y5308575D01*
X-1752682D01*
X-1727290Y5283183D01*
Y5232400D01*
X-1752682Y5207008D01*
X-1828857D01*
X-1778074D02*
X-1727290Y5156225D01*
X-1676314Y1854175D02*
X-1574746D01*
X-1625530D01*
Y1701825D01*
X-1523963D02*
Y1854175D01*
X-1447788D01*
X-1422396Y1828783D01*
Y1778000D01*
X-1447788Y1752608D01*
X-1523963D01*
X-1473179D02*
X-1422396Y1701825D01*
X-1371612Y1854175D02*
X-1320829D01*
X-1346220D01*
Y1701825D01*
X-1371612D01*
X-1320829D01*
X-1143086Y1828783D02*
X-1168478Y1854175D01*
X-1219261D01*
X-1244653Y1828783D01*
Y1727217D01*
X-1219261Y1701825D01*
X-1168478D01*
X-1143086Y1727217D01*
Y1778000D01*
X-1193870D01*
X-2806618Y4483125D02*
Y4508517D01*
X-2781226D01*
Y4483125D01*
X-2806618D01*
X-2679659D02*
X-2628875D01*
X-2654267D01*
Y4635475D01*
X-2679659Y4610083D01*
X-2552700Y4584692D02*
Y4508517D01*
X-2527308Y4483125D01*
X-2451133D01*
Y4584692D01*
X-2298782Y4635475D02*
X-2400349D01*
Y4559300D01*
X-2349566D01*
X-2400349D01*
Y4483125D01*
X-6629338Y1231875D02*
X-6578555D01*
X-6603946D01*
Y1079525D01*
X-6629338D01*
X-6578555D01*
X-6502379D02*
Y1231875D01*
X-6451596Y1181092D01*
X-6400812Y1231875D01*
Y1079525D01*
X-6350029Y1231875D02*
Y1104917D01*
X-6324637Y1079525D01*
X-6273853D01*
X-6248461Y1104917D01*
Y1231875D01*
X-5284470Y2121469D02*
X-5182903D01*
X-5233687D01*
Y1969118D01*
X-5132119D02*
X-5081336D01*
X-5106727D01*
Y2070686D01*
X-5132119D01*
X-5005160Y1969118D02*
Y2070686D01*
X-4928985D01*
X-4903593Y2045294D01*
Y1969118D01*
X-4852810Y2070686D02*
Y1994510D01*
X-4827418Y1969118D01*
X-4751242D01*
Y1943727D01*
X-4776634Y1918335D01*
X-4802026D01*
X-4751242Y1969118D02*
Y2070686D01*
X-4700459Y1969118D02*
Y2121469D01*
X-4624284D01*
X-4598892Y2096077D01*
Y2045294D01*
X-4624284Y2019902D01*
X-4700459D01*
X-4548108Y2121469D02*
X-4497325D01*
X-4522716D01*
Y1969118D01*
X-4548108D01*
X-4497325D01*
X-4319582Y2096077D02*
X-4344974Y2121469D01*
X-4395758D01*
X-4421149Y2096077D01*
Y1994510D01*
X-4395758Y1969118D01*
X-4344974D01*
X-4319582Y1994510D01*
X-4192623Y2121469D02*
X-4243407D01*
X-4268799Y2096077D01*
Y1994510D01*
X-4243407Y1969118D01*
X-4192623D01*
X-4167231Y1994510D01*
Y2096077D01*
X-4192623Y2121469D01*
X-1777938Y190525D02*
X-1727155D01*
X-1752546D01*
Y342875D01*
X-1777938Y317483D01*
X-1650979D02*
X-1625588Y342875D01*
X-1574804D01*
X-1549412Y317483D01*
Y215917D01*
X-1574804Y190525D01*
X-1625588D01*
X-1650979Y215917D01*
Y317483D01*
X-1498629Y342875D02*
Y190525D01*
Y241308D01*
X-1397061Y342875D01*
X-1473237Y266700D01*
X-1397061Y190525D01*
X-1257210D02*
Y342875D01*
X-1155642Y190525D01*
Y342875D01*
X-1104859Y190525D02*
Y342875D01*
X-1054075Y292092D01*
X-1003292Y342875D01*
Y190525D01*
X-876333Y342875D02*
X-927116D01*
X-952508Y317483D01*
Y215917D01*
X-927116Y190525D01*
X-876333D01*
X-850941Y215917D01*
Y317483D01*
X-876333Y342875D01*
X-698590Y317483D02*
X-723982Y342875D01*
X-774766D01*
X-800157Y317483D01*
Y292092D01*
X-774766Y266700D01*
X-723982D01*
X-698590Y241308D01*
Y215917D01*
X-723982Y190525D01*
X-774766D01*
X-800157Y215917D01*
X-647610Y317483D02*
X-622218Y342875D01*
X-571434D01*
X-546042Y317483D01*
Y292092D01*
X-571434Y266700D01*
X-596826D01*
X-571434D01*
X-546042Y241308D01*
Y215917D01*
X-571434Y190525D01*
X-622218D01*
X-647610Y215917D01*
X-495259Y317483D02*
X-469867Y342875D01*
X-419083D01*
X-393692Y317483D01*
Y215917D01*
X-419083Y190525D01*
X-469867D01*
X-495259Y215917D01*
Y317483D01*
X-342908D02*
X-317516Y342875D01*
X-266733D01*
X-241341Y317483D01*
Y215917D01*
X-266733Y190525D01*
X-317516D01*
X-342908Y215917D01*
Y317483D01*
X-190557Y342875D02*
Y190525D01*
Y241308D01*
X-88990Y342875D01*
X-165166Y266700D01*
X-88990Y190525D01*
X-6708140Y3540760D02*
Y3693111D01*
X-6631965D01*
X-6606573Y3667719D01*
Y3616935D01*
X-6631965Y3591543D01*
X-6708140D01*
X-6657357D02*
X-6606573Y3540760D01*
X-6479614D02*
X-6530397D01*
X-6555789Y3566152D01*
Y3616935D01*
X-6530397Y3642327D01*
X-6479614D01*
X-6454222Y3616935D01*
Y3591543D01*
X-6555789D01*
X-6403439Y3540760D02*
X-6327263D01*
X-6301871Y3566152D01*
X-6327263Y3591543D01*
X-6378047D01*
X-6403439Y3616935D01*
X-6378047Y3642327D01*
X-6301871D01*
X-6174912Y3540760D02*
X-6225696D01*
X-6251088Y3566152D01*
Y3616935D01*
X-6225696Y3642327D01*
X-6174912D01*
X-6149521Y3616935D01*
Y3591543D01*
X-6251088D01*
X-6073345Y3667719D02*
Y3642327D01*
X-6098737D01*
X-6047954D01*
X-6073345D01*
Y3566152D01*
X-6047954Y3540760D01*
X-2654300Y4064000D02*
Y4216351D01*
X-2603517Y4165567D01*
X-2552733Y4216351D01*
Y4064000D01*
X-2501949D02*
Y4216351D01*
X-2425774D01*
X-2400382Y4190959D01*
Y4140175D01*
X-2425774Y4114783D01*
X-2501949D01*
X-2349599Y4190959D02*
X-2324207Y4216351D01*
X-2273423D01*
X-2248031Y4190959D01*
Y4165567D01*
X-2273423Y4140175D01*
X-2298815D01*
X-2273423D01*
X-2248031Y4114783D01*
Y4089392D01*
X-2273423Y4064000D01*
X-2324207D01*
X-2349599Y4089392D01*
X-2044897Y4064000D02*
Y4216351D01*
X-1994114Y4165567D01*
X-1943330Y4216351D01*
Y4064000D01*
X-1867155D02*
X-1816371D01*
X-1790979Y4089392D01*
Y4140175D01*
X-1816371Y4165567D01*
X-1867155D01*
X-1892546Y4140175D01*
Y4089392D01*
X-1867155Y4064000D01*
X-1638628Y4216351D02*
Y4064000D01*
X-1714804D01*
X-1740196Y4089392D01*
Y4140175D01*
X-1714804Y4165567D01*
X-1638628D01*
X-1587845D02*
Y4089392D01*
X-1562453Y4064000D01*
X-1486278D01*
Y4165567D01*
X-1435494Y4064000D02*
X-1384711D01*
X-1410102D01*
Y4216351D01*
X-1435494D01*
X-1232360Y4064000D02*
X-1283143D01*
X-1308535Y4089392D01*
Y4140175D01*
X-1283143Y4165567D01*
X-1232360D01*
X-1206968Y4140175D01*
Y4114783D01*
X-1308535D01*
X-1816100Y1993900D02*
Y2146251D01*
X-1765317Y2095467D01*
X-1714533Y2146251D01*
Y1993900D01*
X-1663749D02*
Y2146251D01*
X-1587574D01*
X-1562182Y2120859D01*
Y2070075D01*
X-1587574Y2044683D01*
X-1663749D01*
X-1511399Y2120859D02*
X-1486007Y2146251D01*
X-1435223D01*
X-1409831Y2120859D01*
Y2095467D01*
X-1435223Y2070075D01*
X-1460615D01*
X-1435223D01*
X-1409831Y2044683D01*
Y2019292D01*
X-1435223Y1993900D01*
X-1486007D01*
X-1511399Y2019292D01*
D31*
X-4142801Y982599D02*
X-4062801D01*
X-4102801Y1052601D02*
X-4062801Y982599D01*
X-4142801D02*
X-4102801Y1052601D01*
X-4322801Y1750598D02*
X-3132800D01*
Y1095599D02*
Y1750598D01*
X-3412800Y1095599D02*
X-3132800D01*
X-4322801D02*
X-4192798D01*
X-4322801Y1621602D02*
Y1750598D01*
Y1095599D02*
Y1476599D01*
D32*
X-4913630Y5248250D02*
Y5184771D01*
X-4900934Y5172075D01*
X-4875542D01*
X-4862847Y5184771D01*
Y5248250D01*
X-4786671Y5235554D02*
X-4799367Y5248250D01*
X-4824759D01*
X-4837455Y5235554D01*
Y5222858D01*
X-4824759Y5210163D01*
X-4799367D01*
X-4786671Y5197467D01*
Y5184771D01*
X-4799367Y5172075D01*
X-4824759D01*
X-4837455Y5184771D01*
X-4761279Y5248250D02*
Y5172075D01*
X-4723191D01*
X-4710496Y5184771D01*
Y5197467D01*
X-4723191Y5210163D01*
X-4761279D01*
X-4723191D01*
X-4710496Y5222858D01*
Y5235554D01*
X-4723191Y5248250D01*
X-4761279D01*
X-4685104Y5210163D02*
X-4634320D01*
X-4558145Y5235554D02*
X-4570841Y5248250D01*
X-4596233D01*
X-4608929Y5235554D01*
Y5184771D01*
X-4596233Y5172075D01*
X-4570841D01*
X-4558145Y5184771D01*
%TF.MD5,835d71b936309698eed61a7362c5e59e*%
M02*
