%TF.GenerationSoftware,Altium Limited,Altium Designer,23.1.1 (15)*%
G04 Layer_Physical_Order=1*
G04 Layer_Color=255*
%FSLAX45Y45*%
%MOMM*%
%TF.SameCoordinates,C52F0387-6C9F-4DBB-ABB6-C867BCF9EA55*%
%TF.FilePolarity,Positive*%
%TF.FileFunction,Copper,L1,Top,Signal*%
%TF.Part,Single*%
G01*
G75*
%TA.AperFunction,SMDPad,CuDef*%
%ADD10R,1.71213X1.05814*%
%TA.AperFunction,ConnectorPad*%
%ADD11R,1.90000X1.50000*%
%ADD12R,1.75822X1.40375*%
%ADD13R,0.90000X0.95000*%
%ADD14R,1.71213X1.05814*%
%TA.AperFunction,Conductor*%
%ADD15C,0.63500*%
%ADD16C,0.38100*%
%TA.AperFunction,ComponentPad*%
%ADD17R,1.05000X1.05000*%
%ADD18C,1.05000*%
%TA.AperFunction,ViaPad*%
%ADD19C,2.54000*%
%TA.AperFunction,ComponentPad*%
%ADD20C,1.20000*%
%ADD21R,1.20000X1.20000*%
%ADD22C,1.10000*%
%ADD23R,1.20000X1.20000*%
%ADD24C,1.42240*%
%ADD25R,1.37160X1.37160*%
%ADD26C,0.80000*%
%TA.AperFunction,ViaPad*%
%ADD27C,1.00000*%
D10*
X-4813300Y517703D02*
D03*
X-4356100D02*
D03*
X-3911600D02*
D03*
X-3505200D02*
D03*
X-3073400Y815802D02*
D03*
X-4813300Y803097D02*
D03*
X-4356100D02*
D03*
X-3911600D02*
D03*
X-3505200D02*
D03*
X-3073400Y530403D02*
D03*
X-6845300Y4079697D02*
D03*
Y3794303D02*
D03*
X-1943100Y764997D02*
D03*
Y479603D02*
D03*
X-2679700Y1488897D02*
D03*
Y1203498D02*
D03*
D11*
X-2578100Y4864100D02*
D03*
Y5164099D02*
D03*
D12*
X-1384300Y599039D02*
D03*
Y874161D02*
D03*
X-660400Y836061D02*
D03*
Y560939D02*
D03*
D13*
X-1111001Y624302D02*
D03*
X-1016000Y874298D02*
D03*
X-920999Y624302D02*
D03*
D14*
X-266700Y1447800D02*
D03*
Y1162406D02*
D03*
D15*
X-1947951Y474751D02*
X-1943100Y479603D01*
X-2207489Y474751D02*
X-1947951D01*
X-2212340Y469900D02*
X-2207489Y474751D01*
X-3304083Y530403D02*
X-3162300D01*
X-3764280Y299720D02*
Y383540D01*
X-4813300Y802640D02*
X-4656277D01*
X-7084060Y1524000D02*
Y4183380D01*
Y629920D02*
Y1524000D01*
X-3939891Y517703D02*
Y624489D01*
X-762000Y836061D02*
Y899160D01*
X-1208639Y874161D02*
X-1115060Y967740D01*
Y624302D02*
Y967740D01*
X-6812280Y3794303D02*
Y3937000D01*
X-4944923Y803097D02*
X-4813300D01*
X-5019040Y728980D02*
X-4944923Y803097D01*
X-5019040Y304800D02*
Y728980D01*
Y304800D02*
X-4919980Y205740D01*
X-3858260D01*
X-3764280Y299720D01*
X-3911600Y803097D02*
X-3815537D01*
X-3505200Y731520D02*
Y803097D01*
Y731520D02*
X-3304083Y530403D01*
X-3815537Y803097D02*
X-3764280Y751840D01*
Y383540D02*
Y751840D01*
Y383540D02*
X-3352343Y340360D01*
X-3162300Y530403D01*
X-3073400D01*
X-8973099Y582600D02*
X-8123138Y1432560D01*
X-7175500D01*
X-7084060Y1524000D01*
Y4183380D02*
X-7010400Y4257040D01*
X-4607560D01*
X-3975100Y4889500D01*
X-2746197Y764997D02*
X-1943100D01*
X-3352800Y1371600D02*
X-2746197Y764997D01*
X-4417060Y2082800D02*
Y2923540D01*
X-3975100Y3365500D01*
X-4102801Y519999D02*
Y1171600D01*
X-4249420Y373380D02*
X-4102801Y519999D01*
X-4567377Y373380D02*
X-4249420D01*
X-4711700Y517703D02*
X-4567377Y373380D01*
X-4813300Y517703D02*
X-4711700D01*
X-6461100Y673100D02*
X-5709920Y1424280D01*
Y2138680D01*
X-3975100Y3873500D01*
X-1384300Y874161D02*
X-1208639D01*
X-850900Y988060D02*
X-762000Y899160D01*
X-1384300Y599039D02*
X-1252220D01*
X-1122177Y468996D01*
X-1013460D01*
X-920999Y561457D01*
Y624302D01*
X-4114800Y1533601D02*
X-3952799Y1371600D01*
X-4114800Y1533601D02*
Y2202180D01*
X-3621583Y517703D02*
X-3505200D01*
X-3652799Y548919D02*
X-3621583Y517703D01*
X-3652799Y548919D02*
Y1371600D01*
X-3695700Y1414501D02*
X-3652799Y1371600D01*
X-3695700Y1414501D02*
Y2578100D01*
X-4813300Y802640D02*
Y803097D01*
X-4656277Y802640D02*
X-4655820Y803097D01*
X-4356100D01*
X-4813300D02*
Y2905760D01*
X-4229100Y3489960D01*
X-3898900D01*
X-3850640Y3538220D01*
Y4003040D01*
X-3975100Y4127500D02*
X-3850640Y4003040D01*
X-6990080Y2820279D02*
X-6513500Y2343699D01*
X-6990080Y2820279D02*
Y4036517D01*
X-6946900Y4079697D01*
X-6845300D01*
X-5834837D01*
X-5755640Y4000500D01*
X-4102100D01*
X-3975100Y4127500D01*
X-3583940Y4518660D01*
Y5293360D01*
X-3556000Y5321300D01*
X-1905000D01*
X-266700Y3683000D01*
Y1447800D02*
Y3683000D01*
X-363220Y1447800D02*
X-266700D01*
X-614898Y1699478D02*
X-363220Y1447800D01*
X-1760220Y1699478D02*
X-614898D01*
X-2038899Y1420800D02*
X-1760220Y1699478D01*
X-6398260Y535940D02*
X-6261100Y673100D01*
X-6990080Y535940D02*
X-6398260D01*
X-7084060Y629920D02*
X-6990080Y535940D01*
X-2578100Y3898900D02*
Y4864100D01*
Y3898900D02*
X-2527300Y3848100D01*
X-774700Y1371600D02*
X-565506Y1162406D01*
X-266700D01*
X-6762699Y774700D02*
Y1638300D01*
Y774700D02*
X-6661099Y673100D01*
X-6762699Y1638300D02*
X-6713499Y1687500D01*
Y2343699D01*
X-2578100Y5164099D02*
X-2466619D01*
X-2402840Y5100320D01*
Y3515360D02*
Y5100320D01*
X-2453640Y3464560D02*
X-2402840Y3515360D01*
X-2598420Y3464560D02*
X-2453640D01*
X-2651760Y3411220D02*
X-2598420Y3464560D01*
X-2651760Y2448560D02*
Y3411220D01*
Y2448560D02*
X-2527300Y2324100D01*
X-2679700Y2171700D02*
X-2527300Y2324100D01*
X-2679700Y1488897D02*
Y2171700D01*
X-3235503Y1488897D02*
X-2679700D01*
X-3352800Y1371600D02*
X-3235503Y1488897D01*
X-1943100Y764997D02*
X-1797863D01*
X-1191260Y1371600D01*
X-974700D01*
X-4356100Y517703D02*
X-4264660D01*
X-4216918Y565445D01*
Y1239520D01*
X-4084838Y1371600D01*
X-3952799D01*
X-3939891Y517703D02*
X-3911600D01*
X-3939891Y624489D02*
X-3903980Y660400D01*
X-3502797Y1171600D02*
X-3167380Y815802D01*
X-3073400D01*
X-1115060Y624302D02*
X-1111001D01*
X-1115060Y967740D02*
X-1094740Y988060D01*
X-850900D01*
X-762000Y836061D02*
X-660400D01*
X-1016000Y874298D02*
X-911860D01*
X-6845300Y3794303D02*
X-6812280D01*
X-6362700Y1638300D02*
X-6313500Y1687500D01*
Y2343699D01*
Y2916860D01*
X-6151880Y3078480D01*
Y3223260D01*
X-5501640Y3873500D01*
X-6162700Y1638300D02*
Y1802740D01*
X-6113501Y2343699D01*
Y2697480D01*
X-5803209Y3007771D01*
Y3452551D01*
X-5636260Y3619500D01*
X-5501640D01*
X-2527300Y2578100D02*
X-2087880Y3017520D01*
Y4597618D01*
X-1873799Y4811700D01*
X-2527300Y2070100D02*
X-1873799Y2723601D01*
Y4611700D01*
X-2679700Y1203498D02*
X-2369820D01*
X-2352518Y1220800D01*
X-2038899D01*
X-782320Y1074420D02*
X-607060D01*
X-518160Y985520D01*
Y588879D02*
Y985520D01*
X-546100Y560939D02*
X-518160Y588879D01*
X-660400Y560939D02*
X-546100D01*
D16*
X-3251200Y5064100D02*
X-3051200Y4864100D01*
X-2578100D01*
X-3382112Y4995012D02*
X-3251200Y4864100D01*
X-3382112Y4995012D02*
Y5119731D01*
X-3337743Y5164099D01*
X-2578100D01*
D17*
X-4102801Y1171600D02*
D03*
D18*
X-3952799Y1371600D02*
D03*
X-3802802Y1171600D02*
D03*
X-3652799Y1371600D02*
D03*
X-3502797Y1171600D02*
D03*
X-3352800Y1371600D02*
D03*
D19*
X-8509000Y1346200D02*
D03*
X-1295400Y4432300D02*
D03*
X-203200Y635000D02*
D03*
X-9423400Y215900D02*
D03*
X-6019800Y4533900D02*
D03*
D20*
X-1873799Y4611700D02*
D03*
X-3251200Y4864100D02*
D03*
X-6667500Y4702200D02*
D03*
X-6713499Y2343699D02*
D03*
X-6513500D02*
D03*
X-6313500D02*
D03*
X-6762699Y1638300D02*
D03*
X-6562700D02*
D03*
X-6362700D02*
D03*
X-974700Y1371600D02*
D03*
X-2038899Y1220800D02*
D03*
X-8973099Y382600D02*
D03*
X-6661099Y673100D02*
D03*
X-6461100D02*
D03*
X-7899400Y469900D02*
D03*
X-6513500Y3219999D02*
D03*
D21*
X-1873799Y4811700D02*
D03*
X-3251200Y5064100D02*
D03*
X-6667500Y4902200D02*
D03*
X-2038899Y1420800D02*
D03*
X-8973099Y582600D02*
D03*
X-7899400Y669900D02*
D03*
D22*
X-2043801Y4961702D02*
D03*
X-3421202Y5214102D02*
D03*
X-6837502Y5052202D02*
D03*
X-5963498Y2513701D02*
D03*
X-6012698Y1808302D02*
D03*
X-624698Y1541602D02*
D03*
X-2208901Y1570802D02*
D03*
X-9143101Y732602D02*
D03*
X-6111098Y843102D02*
D03*
X-8069402Y819902D02*
D03*
X-6163498Y3390001D02*
D03*
D23*
X-6113501Y2343699D02*
D03*
X-6162700Y1638300D02*
D03*
X-774700Y1371600D02*
D03*
X-6261100Y673100D02*
D03*
X-6313500Y3219999D02*
D03*
D24*
X-3975100Y4889500D02*
D03*
Y4381500D02*
D03*
Y4127500D02*
D03*
Y3873500D02*
D03*
Y3619500D02*
D03*
Y3365500D02*
D03*
Y3111500D02*
D03*
Y2857500D02*
D03*
Y2603500D02*
D03*
X-5501640Y4889500D02*
D03*
Y4635500D02*
D03*
Y4381500D02*
D03*
Y4127500D02*
D03*
Y3873500D02*
D03*
Y3619500D02*
D03*
Y3365500D02*
D03*
Y3111500D02*
D03*
Y2857500D02*
D03*
X-2527300Y3086100D02*
D03*
Y3340100D02*
D03*
Y3594100D02*
D03*
Y3848100D02*
D03*
Y2832100D02*
D03*
Y2578100D02*
D03*
Y2324100D02*
D03*
Y2070100D02*
D03*
X-698500Y3086100D02*
D03*
Y3340100D02*
D03*
Y3594100D02*
D03*
Y3848100D02*
D03*
Y2832100D02*
D03*
Y2578100D02*
D03*
Y2324100D02*
D03*
Y2070100D02*
D03*
D25*
X-3975100Y4635500D02*
D03*
X-5501640Y2603500D02*
D03*
D26*
X-4267799Y1551600D02*
D03*
D27*
X-2212340Y469900D02*
D03*
X-4417060Y2082800D02*
D03*
X-4114800Y2202180D02*
D03*
X-3695700Y2578100D02*
D03*
X-3903980Y660400D02*
D03*
X-911860Y874298D02*
D03*
X-6812280Y3937000D02*
D03*
X-782320Y1074420D02*
D03*
%TF.MD5,a347712f3664e454555219b07a1995ff*%
M02*
